<svg width="23" height="27" viewBox="0 0 23 27" fill="none" xmlns="http://www.w3.org/2000/svg">
<path d="M1.70156 7.98752C1.70821 7.85446 1.81803 7.75 1.95125 7.75H21.0487C21.182 7.75 21.2918 7.85446 21.2984 7.98751L22.1984 25.9875C22.2056 26.1303 22.0917 26.25 21.9488 26.25H1.05125C0.908275 26.25 0.794421 26.1303 0.801561 25.9875L1.70156 7.98752Z" stroke="#313133" stroke-width="1.5"/>
<path fill-rule="evenodd" clip-rule="evenodd" d="M16.4664 11C16.4894 10.5233 16.5 10.023 16.5 9.5C16.5 6.91305 16.2196 4.8705 15.4677 3.50676C15.1108 2.85955 14.6568 2.38328 14.071 2.05707C13.4773 1.72643 12.6577 1.5 11.5 1.5C10.3423 1.5 9.52274 1.72643 8.92899 2.05707C8.34317 2.38328 7.88917 2.85955 7.53231 3.50676C6.78036 4.8705 6.5 6.91305 6.5 9.5C6.5 10.0225 6.50018 10.522 6.50614 11H5.00598C5 10.5114 5 10.0104 5 9.5C5 4.25329 6.08333 0 11.5 0C16.9167 0 18 4.25329 18 9.5C18 10.0104 17.9905 10.5114 17.9684 11H16.4664Z" fill="#313133"/>
</svg>
